<?xml version="1.0" encoding="UTF-8" standalone="no"?>
<!-- Created with Inkscape (http://www.inkscape.org/) -->

<svg
   width="210mm"
   height="210mm"
   viewBox="0 0 210 210"
   version="1.1"
   id="svg646"
   inkscape:version="1.2 (dc2aedaf03, 2022-05-15)"
   sodipodi:docname="ko-fi.svg"
   xmlns:inkscape="http://www.inkscape.org/namespaces/inkscape"
   xmlns:sodipodi="http://sodipodi.sourceforge.net/DTD/sodipodi-0.dtd"
   xmlns="http://www.w3.org/2000/svg"
   xmlns:svg="http://www.w3.org/2000/svg">
  <sodipodi:namedview
     id="namedview648"
     pagecolor="#505050"
     bordercolor="#eeeeee"
     borderopacity="1"
     inkscape:showpageshadow="0"
     inkscape:pageopacity="0"
     inkscape:pagecheckerboard="0"
     inkscape:deskcolor="#505050"
     inkscape:document-units="mm"
     showgrid="false"
     inkscape:zoom="0.76969697"
     inkscape:cx="396.90945"
     inkscape:cy="354.03543"
     inkscape:window-width="1920"
     inkscape:window-height="1051"
     inkscape:window-x="-9"
     inkscape:window-y="-9"
     inkscape:window-maximized="1"
     inkscape:current-layer="layer1" />
  <defs
     id="defs643">
    <clipPath
       clipPathUnits="userSpaceOnUse"
       id="clipPath154">
      <path
         d="M 0,600 H 1654.775 V 0 H 0 Z"
         id="path152" />
    </clipPath>
  </defs>
  <g
     inkscape:label="Layer 1"
     inkscape:groupmode="layer"
     id="layer1">
    <g
       id="g148"
       transform="matrix(0.30254372,0,0,-0.30254374,15.455513,194.91937)">
      <g
         id="g150"
         clip-path="url(#clipPath154)">
        <g
           id="g156"
           transform="translate(600.0004,300)">
          <path
             d="m 0,0 c 0,165.686 -134.315,300 -300,300 -165.686,0 -300,-134.314 -300,-300 0,-165.686 134.314,-300 300,-300 165.685,0 300,134.314 300,300"
             style="fill:#000000;fill-opacity:1;fill-rule:nonzero;stroke:none"
             id="path158" />
        </g>
        <g
           id="g160"
           transform="translate(548.4271,345.8672)">
          <path
             d="m 0,0 c -6.319,33.374 -24.285,54.164 -42.697,67.02 -19.041,13.293 -41.849,20.125 -65.072,20.125 h -329.585 c -11.465,0 -15.858,-11.194 -15.901,-16.801 -0.006,-0.731 0.021,-3.657 0.021,-3.657 0,0 -0.54,-145.813 0.483,-223.693 3.11,-45.978 49.177,-45.963 49.177,-45.963 0,0 150.404,0.441 222.534,0.889 3.384,0.021 6.763,0.386 10.045,1.207 41.068,10.274 45.316,48.428 44.878,69.696 C -43.568,-135.763 14.674,-77.514 0,0 m -92.731,-75.675 c -17.605,-2.2 -31.908,-0.549 -31.908,-0.549 V 31.572 h 21.661 c 14.317,0 28.128,-5.962 37.469,-16.81 6.576,-7.638 11.837,-18.388 11.837,-33.238 0,-36.298 -18.703,-50.599 -39.059,-57.199"
             style="fill:#ffffff;fill-opacity:1;fill-rule:nonzero;stroke:none"
             id="path162" />
        </g>
        <g
           id="g164"
           transform="translate(256.6136,203.3672)">
          <path
             d="m 0,0 c 3.585,-1.806 5.876,0.437 5.876,0.437 0,0 52.457,47.878 76.089,75.452 21.018,24.667 22.389,66.234 -13.708,81.766 -36.096,15.532 -65.795,-18.272 -65.795,-18.272 -25.755,28.326 -64.734,26.891 -82.763,7.721 -18.027,-19.169 -11.732,-52.072 1.717,-70.383 12.626,-17.19 68.119,-66.65 76.529,-75.015 0,0 0.614,-0.641 2.055,-1.706"
             style="fill:#000000;fill-opacity:1;fill-rule:nonzero;stroke:none"
             id="path166" />
        </g>
      </g>
    </g>
  </g>
</svg>
